<svg width="191" height="160" viewBox="0 0 191 160" fill="none" xmlns="http://www.w3.org/2000/svg">
<path d="M47.84 34.08H45.92C36.4267 34.08 29.0133 36.48 23.68 41.28C18.4533 45.9733 15.84 54.3467 15.84 66.4C15.84 70.3467 16.2133 73.12 16.96 74.72C17.7067 76.2133 18.08 77.0667 18.08 77.28C12.32 77.28 8 76.1067 5.12 73.76C2.34667 71.3067 0.96 67.3067 0.96 61.76C0.96 54.1867 2.82667 47.3067 6.56 41.12C10.2933 34.8267 16.2133 29.76 24.32 25.92C32.5333 22.08 42.9333 20.16 55.52 20.16C62.56 20.16 70.1333 20.8 78.24 22.08C85.0667 23.2533 91.1467 23.84 96.48 23.84C103.307 23.84 109.493 22.72 115.04 20.48C114.827 27.4133 113.067 32.5333 109.76 35.84C106.453 39.1467 101.547 40.8 95.04 40.8C91.6267 40.8 88.2133 40.5333 84.8 40C81.3867 39.4667 76.5333 38.56 70.24 37.28L48.16 140H25.12L47.84 34.08Z" fill="white"/>
<path d="M66.1202 140.456C63.2322 140.456 60.8255 139.468 58.9002 137.492C56.9749 135.516 56.0122 132.425 56.0122 128.22C56.0122 124.471 56.7469 120.544 58.2162 116.44C59.7362 112.285 61.9655 108.789 64.9042 105.952C67.8935 103.064 71.4402 101.62 75.5442 101.62C77.6215 101.62 79.1669 101.975 80.1802 102.684C81.1935 103.393 81.7002 104.331 81.7002 105.496V106.028L82.5362 102H93.4802L88.0082 127.84C87.8055 128.6 87.7042 129.411 87.7042 130.272C87.7042 132.451 88.7429 133.54 90.8202 133.54C92.2389 133.54 93.4549 132.881 94.4682 131.564C95.5322 130.247 96.3682 128.524 96.9762 126.396H100.168C98.2935 131.868 95.9629 135.592 93.1762 137.568C90.4402 139.493 87.6789 140.456 84.8922 140.456C82.7642 140.456 81.0415 139.873 79.7242 138.708C78.4575 137.492 77.6975 135.744 77.4442 133.464C75.9749 135.541 74.3282 137.239 72.5042 138.556C70.7309 139.823 68.6029 140.456 66.1202 140.456ZM71.0602 133.084C72.3269 133.084 73.5682 132.501 74.7842 131.336C76.0509 130.12 76.9122 128.473 77.3682 126.396L81.0162 109.22C81.0162 108.561 80.7629 107.928 80.2562 107.32C79.7495 106.661 78.9642 106.332 77.9002 106.332C75.8735 106.332 74.0495 107.523 72.4282 109.904C70.8069 112.235 69.5402 115.072 68.6282 118.416C67.7162 121.709 67.2602 124.623 67.2602 127.156C67.2602 129.689 67.6149 131.311 68.3242 132.02C69.0842 132.729 69.9962 133.084 71.0602 133.084Z" fill="white"/>
<path d="M106.872 140.456C103.123 140.456 100.209 139.493 98.1321 137.568C96.0548 135.592 95.0161 132.527 95.0161 128.372C95.0161 124.876 95.7001 121.025 97.0681 116.82C98.4868 112.615 100.716 108.992 103.756 105.952C106.847 102.861 110.748 101.316 115.46 101.316C118.5 101.316 120.653 101.975 121.92 103.292C123.237 104.609 123.896 106.281 123.896 108.308C123.896 110.081 123.516 111.449 122.756 112.412C121.996 113.375 121.033 113.856 119.868 113.856C119.007 113.856 118.12 113.552 117.208 112.944C117.816 111.272 118.12 109.777 118.12 108.46C118.12 107.497 117.943 106.737 117.588 106.18C117.233 105.623 116.701 105.344 115.992 105.344C114.472 105.344 112.952 106.585 111.432 109.068C109.912 111.551 108.671 114.565 107.708 118.112C106.745 121.659 106.264 124.851 106.264 127.688C106.264 130.171 106.695 131.868 107.556 132.78C108.417 133.641 109.811 134.072 111.736 134.072C114.472 134.072 116.803 133.439 118.728 132.172C120.704 130.905 122.857 128.98 125.188 126.396H127.772C122.148 135.769 115.181 140.456 106.872 140.456Z" fill="white"/>
<path d="M131.696 140.456C129.264 140.456 127.288 139.696 125.768 138.176C124.299 136.656 123.564 134.376 123.564 131.336C123.564 130.069 123.767 128.423 124.172 126.396L128.732 105.04H126.224L126.832 102H129.34L131.62 91.5119L142.868 89.9919L140.284 102H144.844L144.236 105.04H139.676L134.812 127.84C134.609 128.6 134.508 129.411 134.508 130.272C134.508 131.285 134.736 132.02 135.192 132.476C135.699 132.881 136.509 133.084 137.624 133.084C139.093 133.084 140.461 132.476 141.728 131.26C142.995 129.993 143.907 128.372 144.464 126.396H147.656C145.781 131.868 143.375 135.592 140.436 137.568C137.497 139.493 134.584 140.456 131.696 140.456Z" fill="white"/>
<path d="M150.882 140.456C148.45 140.456 146.499 139.721 145.03 138.252C143.56 136.732 142.826 134.452 142.826 131.412C142.826 130.247 143.028 128.575 143.434 126.396L148.602 102H159.546L154.074 127.84C153.871 128.6 153.77 129.411 153.77 130.272C153.77 132.096 154.884 133.008 157.114 133.008C158.988 133.008 161.066 132.349 163.346 131.032C165.676 129.664 167.627 127.941 169.198 125.864L164.866 102H175.582L178.546 118.416C180.826 115.984 182.599 113.704 183.866 111.576C185.132 109.448 185.766 107.7 185.766 106.332C185.766 105.876 185.74 105.572 185.69 105.42C184.98 105.521 184.55 105.572 184.398 105.572C183.131 105.572 182.219 105.192 181.662 104.432C181.104 103.621 180.826 102.583 180.826 101.316C180.826 100.201 181.231 99.3399 182.042 98.7319C182.852 98.0733 183.866 97.7439 185.082 97.7439C186.703 97.7439 187.97 98.3773 188.882 99.6439C189.794 100.911 190.25 102.532 190.25 104.508C190.25 106.94 189.388 109.575 187.666 112.412C185.994 115.199 183.232 118.593 179.382 122.596L180.066 126.396C180.522 128.929 181.028 130.677 181.586 131.64C182.194 132.603 183.283 133.084 184.854 133.084C185.766 133.084 186.576 132.932 187.286 132.628C187.083 135.161 186.171 137.112 184.55 138.48C182.979 139.797 181.104 140.456 178.926 140.456C176.544 140.456 174.695 139.671 173.378 138.1C172.111 136.479 171.022 133.793 170.11 130.044C167.424 133.033 164.359 135.516 160.914 137.492C157.519 139.468 154.175 140.456 150.882 140.456Z" fill="white"/>
<path d="M152.516 81.75L157 78.5L161.484 81.75L159.781 87H154.234L152.516 81.75ZM157 69C158.896 69 160.708 69.3698 162.438 70.1094C164.167 70.849 165.656 71.8437 166.906 73.0937C168.156 74.3438 169.151 75.8333 169.891 77.5625C170.63 79.2917 171 81.1042 171 83C171 84.8958 170.63 86.7083 169.891 88.4375C169.151 90.1667 168.156 91.6563 166.906 92.9063C165.656 94.1563 164.167 95.151 162.438 95.8906C160.708 96.6302 158.896 97 157 97C155.104 97 153.292 96.6302 151.563 95.8906C149.833 95.151 148.344 94.1563 147.094 92.9063C145.844 91.6563 144.849 90.1667 144.109 88.4375C143.37 86.7083 143 84.8958 143 83C143 81.1042 143.37 79.2917 144.109 77.5625C144.849 75.8333 145.844 74.3438 147.094 73.0937C148.344 71.8437 149.833 70.849 151.563 70.1094C153.292 69.3698 155.104 69 157 69ZM166.672 90.0938C168.224 87.9792 169 85.6146 169 83V82.9531L167.406 84.3438L163.656 80.8438L164.641 75.7969L166.734 75.9844C165.172 73.8385 163.146 72.3698 160.656 71.5781L161.484 73.5156L157 76L152.516 73.5156L153.344 71.5781C150.854 72.3698 148.828 73.8385 147.266 75.9844L149.375 75.7969L150.344 80.8438L146.594 84.3438L145 82.9531V83C145 85.6146 145.776 87.9792 147.328 90.0938L147.797 88.0313L152.891 88.6563L155.063 93.3125L153.25 94.3906C154.469 94.7969 155.719 95 157 95C158.281 95 159.531 94.7969 160.75 94.3906L158.937 93.3125L161.109 88.6563L166.203 88.0313L166.672 90.0938Z" fill="white"/>
</svg>
